<?xml version="1.0" standalone="no"?>
<!DOCTYPE svg PUBLIC "-//W3C//DTD SVG 20010904//EN"
 "http://www.w3.org/TR/2001/REC-SVG-20010904/DTD/svg10.dtd">
<svg version="1.0" xmlns="http://www.w3.org/2000/svg"
 width="127.000000pt" height="127.000000pt" viewBox="0 0 127.000000 127.000000"
 preserveAspectRatio="xMidYMid meet">

<g transform="translate(0.000000,127.000000) scale(0.100000,-0.100000)"
fill="#000000" stroke="none">
<path d="M615 1180 c39 -4 93 -16 121 -28 47 -19 94 -20 94 -2 0 19 -106 40
-194 39 l-91 -2 70 -7z"/>
<path d="M470 1166 c-79 -29 -143 -69 -196 -122 -30 -31 -53 -58 -50 -61 7 -8
119 27 137 43 8 7 40 28 70 44 30 17 43 28 29 25 -14 -4 -49 -20 -79 -37 -29
-16 -55 -27 -57 -25 -3 3 7 19 22 36 31 37 98 78 157 96 23 8 33 14 22 14 -11
0 -36 -6 -55 -13z"/>
<path d="M541 1115 c7 -7 169 -8 176 -1 3 3 -36 6 -87 6 -51 0 -91 -2 -89 -5z"/>
<path d="M498 1103 c7 -3 16 -2 19 1 4 3 -2 6 -13 5 -11 0 -14 -3 -6 -6z"/>
<path d="M348 733 c7 -3 16 -2 19 1 4 3 -2 6 -13 5 -11 0 -14 -3 -6 -6z"/>
<path d="M700 733 c8 -3 24 -13 35 -22 20 -16 20 -16 1 7 -11 12 -26 22 -35
21 -14 0 -14 -1 -1 -6z"/>
<path d="M443 653 c9 -2 23 -2 30 0 6 3 -1 5 -18 5 -16 0 -22 -2 -12 -5z"/>
<path d="M910 656 c0 -2 13 -6 29 -8 17 -2 28 -1 25 4 -5 8 -54 12 -54 4z"/>
<path d="M302 624 c10 -10 20 -16 22 -13 3 3 -5 11 -17 18 -21 13 -21 12 -5
-5z"/>
<path d="M662 624 c10 -10 20 -16 22 -13 3 3 -5 11 -17 18 -21 13 -21 12 -5
-5z"/>
<path d="M488 613 c6 -2 18 -2 25 0 6 3 1 5 -13 5 -14 0 -19 -2 -12 -5z"/>
<path d="M538 613 c7 -3 16 -2 19 1 4 3 -2 6 -13 5 -11 0 -14 -3 -6 -6z"/>
<path d="M798 613 c6 -2 18 -2 25 0 6 3 1 5 -13 5 -14 0 -19 -2 -12 -5z"/>
<path d="M888 613 c7 -3 16 -2 19 1 4 3 -2 6 -13 5 -11 0 -14 -3 -6 -6z"/>
<path d="M968 613 c6 -2 18 -2 25 0 6 3 1 5 -13 5 -14 0 -19 -2 -12 -5z"/>
<path d="M945 313 c-11 -2 -38 -20 -60 -39 l-40 -36 48 27 c27 15 51 25 53 22
9 -9 -96 -115 -126 -127 -17 -7 -29 -15 -26 -17 9 -10 117 52 161 92 41 38 45
46 35 64 -6 12 -14 20 -18 20 -4 -1 -16 -4 -27 -6z"/>
<path d="M550 190 c14 -4 50 -8 80 -8 l55 1 -50 7 c-27 5 -63 8 -80 8 -29 0
-29 0 -5 -8z"/>
<path d="M430 167 c-24 -9 -24 -10 20 -30 36 -17 68 -21 155 -23 99 -2 103 -1
35 5 -47 4 -96 17 -130 32 -44 20 -61 24 -80 16z"/>
</g>
</svg>
